<svg xmlns="http://www.w3.org/2000/svg" xmlns:xlink="http://www.w3.org/1999/xlink" id="Layer_1" width="32" height="32" enable-background="new 0 0 32 32" version="1.0" viewBox="0 0 32 32" xml:space="preserve"><g><path fill="#007BB5" d="M32,30c0,1.104-0.896,2-2,2H2c-1.104,0-2-0.896-2-2V2c0-1.104,0.896-2,2-2h28c1.104,0,2,0.896,2,2V30z"/><g><rect width="4" height="14" x="7" y="11" fill="#FFF"/><path fill="#FFF" d="M20.499,11c-2.791,0-3.271,1.018-3.499,2v-2h-4v14h4v-8c0-1.297,0.703-2,2-2c1.266,0,2,0.688,2,2v8h4v-7 C25,14,24.479,11,20.499,11z"/><circle cx="9" cy="8" r="2" fill="#FFF"/></g></g></svg>