<?xml version="1.0" ?><svg data-name="Layer 1" id="Layer_1" viewBox="0 0 508.33 508.36" xmlns="http://www.w3.org/2000/svg" xmlns:xlink="http://www.w3.org/1999/xlink"><defs><style>.cls-1{fill:#fff;}.cls-2{fill:#fafafa;fill-rule:evenodd;}.cls-3{mask:url(#mask);}.cls-4{fill:#fc6d26;}.cls-5{fill:#e24329;}.cls-6{fill:#fca326;}</style><mask height="716.8" id="mask" maskUnits="userSpaceOnUse" width="1221.81" x="-121.52" y="-122.64"><g transform="translate(-1.83 -1.82)"><g id="mask-2"><path class="cls-1" d="M-119.69-120.82H1102.13V596H-119.69v-716.8Z" id="path-1"/></g></g></mask></defs><title/><path class="cls-2" d="M485,29.72c11.45,15.13,16.61,40.21,19.15,70.7,3.36,45.5,4.71,100.1,6,156.52-1.67,57.47-2.35,115.43-6,156.52-2.88,31.54-9,52.66-19.22,65.47-13,12.79-37.94,23.59-73.5,26.15-43.25,3.69-96.61,3.65-155.48,5.1-65.44-1.12-109.82-.64-156.38-5.08-36.32-2.52-60.08-13.19-74.7-26.07-10.83-14.54-14-30-17-66.24-3.75-41.85-4.58-98.56-6-155.54C4,200.57,4.13,143.44,7.9,100.74,10.43,67.05,14.42,44.4,24.65,30,39,17.77,63.48,11.69,100,8.69c50-5.85,102.06-7,155.88-6.87,55.39.09,108.56,1.67,156,6.34,32,2.56,58.48,8.07,73.07,21.56Z" transform="translate(-1.83 -1.82)"/><g id="Page-1"><g data-name="gitlab logo" id="gitlab_logo"><g id="g10"><g id="g16"><g id="g18-Clipped"><g class="cls-3"><g id="g18"><g id="g44"><path class="cls-4" d="M400.32,257.47l-16.84-51.81L350.11,103a5.74,5.74,0,0,0-10.91,0L305.84,205.65H195L161.67,103a5.74,5.74,0,0,0-10.91,0L117.4,205.65l-16.83,51.81a11.47,11.47,0,0,0,4.17,12.82L250.44,376.16,396.15,270.29a11.47,11.47,0,0,0,4.17-12.82" id="path46" transform="translate(-1.83 -1.82)"/></g><g id="g48"><path class="cls-5" d="M250.44,376.16h0l55.4-170.5H195l55.4,170.5Z" id="path50" transform="translate(-1.83 -1.82)"/></g><g id="g56"><path class="cls-4" d="M250.44,376.16,195,205.65H117.4l133,170.5Z" id="path58" transform="translate(-1.83 -1.82)"/></g><g id="g64"><path class="cls-6" d="M117.4,205.65h0l-16.84,51.81a11.47,11.47,0,0,0,4.17,12.82L250.44,376.16l-133-170.5Z" id="path66" transform="translate(-1.83 -1.82)"/></g><g id="g72"><path class="cls-5" d="M117.4,205.65H195L161.67,103a5.73,5.73,0,0,0-10.91,0L117.4,205.65Z" id="path74" transform="translate(-1.83 -1.82)"/></g><g id="g76"><path class="cls-4" d="M250.44,376.16l55.4-170.5h77.64l-133,170.5Z" id="path78" transform="translate(-1.83 -1.82)"/></g><g id="g80"><path class="cls-6" d="M383.48,205.65h0l16.84,51.81a11.47,11.47,0,0,1-4.17,12.82L250.44,376.16l133-170.5Z" id="path82" transform="translate(-1.83 -1.82)"/></g><g id="g84"><path class="cls-5" d="M383.48,205.65H305.84L339.21,103a5.73,5.73,0,0,1,10.91,0l33.37,102.69Z" id="path86" transform="translate(-1.83 -1.82)"/></g></g></g></g></g></g></g></g></svg>