<svg version="1" xmlns="http://www.w3.org/2000/svg" width="533.333" height="533.333" viewBox="0 0 400.000000 400.000000"><path d="M206 37.5c-.1.5-.2 1.4-.1 1.9s-.6.3-1.5-.5c-1.6-1.2-1.7-1.2-1.1.4.4 1.1.3 1.6-.4 1.2-2-1.3-6.1-1.2-6.6.1-.3 1-1 1.1-2.3.4-.9-.5-2-.7-2.3-.3-.4.3-1.3 0-2.1-.6-1.1-.9-1.6-.9-2.2 0-.4.7-.3.9.4.5.6-.3 1.3-.2 1.6.3.4.5-.2.8-1.1.6-1-.2-1.8-.4-1.8-.5 0-.1-1.5-.3-3.2-.4-1.8-.1-3.3.3-3.3.8s-.7.1-1.5-1c-1.1-1.4-1.4-1.5-.9-.3.3 1 0 2-.7 2.5-.7.4-1 .3-.5-.4.4-.7-.2-1-1.4-.9-1.1.1-1.9.6-1.7 1.2.3.5-.6 1-1.8 1-1.3 0-2.1-.3-1.8-.8.2-.4 0-.7-.5-.7-.6 0-1.3.8-1.7 1.7-.6 1.7-.7 1.7-2 0-1.3-1.8-1.3-1.8-1.9 0-.6 2-4.8 2.4-9.3.9-1.6-.5-2.3-.3-2.3.6 0 .8-.4.7-1.1-.4-.9-1.6-1.2-1.6-3.3-.3-1.2.8-2.6 1.2-3.1.8-.4-.5-.5.1-.1 1.1.6 1.7.5 1.7-1 .5-1.6-1.3-1.6-1.2-.5 1 1 1.9 1 2.2 0 1.6-.9-.6-1.1-.1-.6 2.2.4 2.2.1 3.6-1.3 5.1-1.4 1.4-1.6 2.2-.7 2.5.9.3.9.8-.2 1.8-.8.8-1.1.9-.8.3.3-.6.1-1.1-.6-1.1s-1.3.8-1.3 1.8.3 1.6.6 1.4c.4-.2.7.2.7.9 0 .8-.7 1.2-1.4.9-.8-.3-1.3-.2-1.2.3.3 2-.2 3.4-1.2 3.4-.5 0-.7-.6-.3-1.3.4-.7.3-.9-.2-.4s-.9 1.8-.9 3c-.1 1.2-.6 2.1-1.3 2-.6-.2-.9.4-.6 1.2.4.8.1 1.5-.5 1.5s-1.1.5-1.1 1.1c0 .5.5.7 1.2.3.7-.5.8-.3.4.5-.5.7-1.5 1-2.5.7-1.2-.5-1.1-.2.3.9 1.1.8 1.7 1.6 1.3 1.6-.4.1-1.1.2-1.7.3-1.2.1-1.4 1.5-.4 2.4.4.4.4.1-.1-.7-.6-1-.4-1.2.5-.6 1 .6.7 1.2-1 2.5s-2 1.9-1 2.5c.9.6 1.1.4.5-.5-.5-.9-.4-1.1.4-.6.6.4.9 1.2.5 1.7-.3.5-.9.7-1.4.4-.5-.3-1.1-.1-1.5.5-.3.5-.1 1 .4 1 .6 0 .2.9-1 2.1-1.7 1.7-1.8 2.3-.7 3.7.9 1.1 1 1.4.1.8-.8-.4-1.3-.1-1.3.9 0 .9-.9 1.9-2 2.2-1.1.3-1.7 1-1.3 1.7.4.6-.2.4-1.2-.4s-1.6-1-1.3-.5c.4.6-.2 1.6-1.2 2.3-1.4.9-2.1.9-2.6 0-.4-.6-.3-.8.4-.4.6.3 1.3.2 1.7-.3.8-1.3-4.5-.3-6.5 1.2-1.3 1.1-1.3 1-.1-.6.9-1.2 1-1.7.2-1.7-.7 0-.9-.5-.5-1.2s.3-.8-.5-.4c-.6.4-.8 1.3-.4 1.9.4.8.1.8-.9-.1-.9-.7-2-1.2-2.4-1.1-3 .5-5.4-.3-5.5-1.9 0-1.4-.2-1.4-.9.3-.5 1.1-.9 1.5-.9.9-.1-.7-.8-1.5-1.7-1.8-.8-.3-1.3-.2-1 .3.3.5-.1 1.2-1 1.5-.8.3-1.2.2-.9-.4.3-.5-.4-.8-1.5-.7-1.2.1-1.8.7-1.6 1.4.3.7-.1 1-.9.6-.8-.3-1.2-1-.8-1.6.3-.6.1-.7-.6-.3-.6.4-.9 1.1-.6 1.6.3.5-.7 1.8-2.1 2.9-1.9 1.5-2.8 3.2-2.9 5.6-.2 1.9.1 3.2.6 3 1-.7 3.1 3 2.1 3.9-.3.4.1.4 1 .1.9-.4 1.9-.1 2.4.6.5.8.3 1-.6.4-.9-.5-1.1-.4-.6.4.5.7 2 1 3.7.7 1.6-.2 2.7 0 2.3.5-.3.5-.9.7-1.4.4-.5-.3-1.1-.1-1.4.4-.4.5.2.8 1.1.6 1-.1 3.3.6 5.1 1.6 1.8 1.1 3 1.5 2.7.9-.3-.6.1-.7.9-.4.9.3 1.3 1.1.9 1.8-.4.6.1.5 1-.3 1.3-1 1.7-1 1.7-.1 0 1 .3 1 1.5 0 1.3-1.1 1.4-1 .9.4-.5 1.2-.2 1.5 1.2.9 1.3-.5 1.6-.3 1.1 1-.4 1.1-.2 1.4.9 1 .7-.3 1.4 0 1.4.6s.4 1.1 1 1.1c.5 0 .7-.8.4-1.8-.4-1.3-.2-1.2.7.3.7 1.1 1.6 2.3 2.1 2.6.6.3.9.9.9 1.3-.1.3.5 1.9 1.4 3.5 1.1 2.3 1.2 3.1.2 3.4-.6.3-.3.6.8.6 1.7.1 1.7.3.5 1.1-1.3.8-1.3 1 0 1 1.1 0 1.1.3.2 1.2-1.4 1.4-1.6 3.2-.4 2.4.5-.3.9.1.9.9s-.5 1.1-1 .8c-.6-.4-.8 0-.4 1s.1 1.7-.6 1.8c-.7 0-.3.4.8.9 1.6.7 1.7.9.3.9-.9.1-2 .6-2.4 1.3-.4.7-.3.8.4.4s1.2-.3 1.2.3c0 .5-.4 1.3-1 1.6-.5.3-1 1.1-1 1.7 0 .6.7.5 1.8-.3 1.5-1.2 1.6-1.2.6.1-.6.8-1 2.5-.9 3.7.1 1.2-.2 2-.6 1.8-1.3-.9-1.9 2.6-.8 4.7.8 1.5.8 1.9 0 1.4-.6-.4-1.1-.2-1.1.3 0 .6.5 1.1 1.1 1.1.5 0 .8.4.4 1-.3.5-1.3.6-2.3.3-1.4-.5-1.4-.3.2.9 2.4 1.9 1.4 6-1.2 5.1-1-.4-.7.2.8 1.5 1.7 1.5 1.9 2 .7 1.6-1.5-.5-1.6-.3-.9 1.7.4 1.3.7 3 .6 3.6-.1.7-.2 1.8-.3 2.4 0 .5-.5.8-.9.5-.5-.3-.9.1-.9.9s.5 1.5 1.1 1.5c.6 0 .4.5-.4 1-1.2.8-1.3 1.1-.1 1.9.7.5.9 1 .4 1.2-.6.2-1.3 1.7-1.7 3.2-.4 1.7-.3 2.6.3 2.3 1.3-.8 0 3.7-1.3 4.6-.7.5-.6.8.3.8 1.1 0 1.1.3 0 1.7-.8.9-.9 1.4-.3 1 1.4-.8 1.2 4.1-.2 5.1-1.2.9-1.2 4.2 0 6.1.6.9.5 1.2-.2.7-.6-.3-1.3-.2-1.7.4-.3.5 0 1 .7 1 .9 0 .9.3-.2 1-.8.5-1 1-.5 1 .6 0 .3.5-.5 1-1.3.8-1.3 1 .2 1 1.2 0 1.6.6 1.3 2.2-.3 1.2-.8 2.4-1.2 2.7-1.1.9-1.4 6.3-.3 5.6.6-.3.7.1.4.9-.3.9-1 1.3-1.5 1-.5-.3-.9 0-.9.5 0 .6.5 1.1 1 1.1.6 0 1 .5 1 1.1 0 .5-.6.7-1.2.3-.9-.5-.9-.2.1.9.7.9.9 1.7.4 1.7-1.7 0-1.2 4 .5 4.1 1.4 0 1.3.2-.3.9-1.1.5-1.4.9-.7.9.6.1 1.1.7 1 1.3-.2.7.2 1.2.8 1.1.6-.1 1.1.4 1.1 1.2 0 .8-.4 1.2-.9.9-.5-.4-.4.3.3 1.4.7 1.2 1.7 1.8 2.3 1.5.5-.4.7.1.3 1-.4 1.1-.1 1.7.7 1.7.7 0 1.8 1 2.5 2.2.6 1.3.9 1.5.7.5-.7-2.4.1-2.1 3 1 1.9 2.1 2.3 2.3 1.9.7-.6-1.8-.6-1.8.8-.1 1.1 1.4 1.6 1.5 2 .5.3-.8.6-.5.6.7.1 1.7.3 1.7 1.1.5s1-1.2 1.1.5v2l.9-2c.7-1.9.8-1.9 1.5-.2s.8 1.7 2.2 0c.8-1 1.2-1.2.8-.6-.3.7-.1 1.3.5 1.3s.9.4.6.8c-.2.4 1.1.7 3 .7 1.9-.1 3.2 0 3 .3-.7.6 1.8 3.1 2.6 2.5.4-.2.5.4.1 1.3-.4 1.2-.3 1.5.5 1 1.6-1 3.4 3.6 1.8 4.7-.6.5-.1.6 1.4.3 2.2-.4 2.3-.4.8.8-1.8 1.3-1.5 2.7.5 2.2.7-.2.9-.1.5.1-.5.3-.8 1.9-.8 3.6 0 2.4.3 2.8 1 1.7.7-1.2.9-1 .7.7 0 1.2-.4 2-.7 1.8-.9-.5-.6 3.8.3 5.3.5.7 1.3.9 1.9.6.7-.4.8-.2.4.5-.4.6-1.2.9-1.7.6-.5-.4-.9-.1-.9.4 0 .6.5 1.1 1.1 1.1.5 0 .7.4.4 1-.3.5-.1 1 .6 1s.5.6-.6 1.4c-1.8 1.3-1.8 1.3.1 2.4 1.4.8 1.5 1.2.4 1.2-1.2 0-1.3.2-.1.9 1.6 1 2.1 8.9.6 9.5-.5.3-.1.5 1 .5 1.7.1 1.7.3.5 1.1s-1.2 1-.1 1c.9 0 1 .4.4 1.3-.6.6-.9 2.1-.6 3.2.2 1.1.5 2.9.7 4.1.2 1.1.6 2.6 1 3.2.3.5 0 1.3-.6 1.5-.8.3-.6.6.5.6 1.9.1 2.4 2.1.5 2.1-.9 0-.8.4.2 1 1.3.9 1.3 1 0 1-.9 0-1.1.3-.4.8 1.9 1.3 2.5 4.2.8 4.2-.8 0-1.2.5-.9 1 .4.6 1.1.8 1.6.5.5-.4.9-.1.9.4 0 .6-.5 1.1-1.1 1.1-.5 0-.7.4-.4 1 .3.5.1 1-.4 1-.6 0-1.1.6-1.1 1.3 0 1.9-4.3 5.2-6.4 4.8-1.2-.2-1.6.1-1 1 .5.9.2 1-.9.6-1-.3-1.7-.2-1.7.3 0 .6-.6.9-1.2.8-.7-.2-1.2.2-1.1.8.1.5-.8 1.6-2 2.4-2.1 1.2-2.1 1.2-.7-.6 1.4-1.9 1.4-1.9-.8 0-2.3 2-3 3.2-1.2 2.1.7-.4.9.3.6 1.9-.3 1.8-.1 2.3 1 1.9.8-.3 1.4.1 1.4 1.1 0 1.9 3.6 2.2 4.4.3.3-.6.4-.3.3.7-.1 1.4.5 1.9 2.6 2 1.5.1 2.7-.3 2.7-.8 0-.6.5-.5 1.2.2 1.4 1.4 3.2 1.6 2.4.4-.3-.5.1-.9.9-.9s1.5.4 1.5.9c0 .4.4.8 1 .8.5 0 .7-.8.3-1.8-.5-1.4-.3-1.3 1 .3.9 1.1 1.7 1.5 1.7.9 0-.5 1.1-1 2.4-1 1.4 0 2.3.3 2 .7-.7 1.2 2.3.4 4-1 .9-.7 1.6-1 1.6-.5s.5.2 1.1-.6c.8-1.2.9-1 .4.9-.7 2.2-.5 2.1 2.9-.9 3-2.8 3.4-3.6 2.3-4.8-.8-1.1-.8-1.4 0-.9.6.4 1.4.3 1.7-.2.4-.5-.2-1.2-1.1-1.4-1.3-.3-1.2-.5.5-.6 2.1-.1 2.2-.3.8-1.6-1-1.1-1.2-2.3-.7-4.3.4-1.5.4-3.9 0-5.5-.5-1.9-.4-2.5.4-2 .7.3.4-.2-.5-1.3-1.4-1.6-1.5-2.3-.6-3.2.9-.9.9-1.2-.2-1.2-1.3 0-1.3-.2 0-1s1.2-1-.4-1c-2 0-2 0 0-1.6 1-.8 1.4-1.3.8-1-2 1-2.6-2.6-.7-4 1.6-1.2 1.6-1.2-.7-.8-1.8.4-2.1.3-1.1-.4 1.1-.8 1.1-1 0-1.5-.9-.4-1-.6-.2-.6.7-.1 1-.8.6-1.8-.5-1.2-.3-1.4.8-.8 1.1.7 1.2.6.2-.7-.7-.8-.9-1.9-.5-2.4.4-.4-.2-.2-1.2.6-1.4 1-1.7 1.1-1.2.2.4-.7.2-2-.6-3-1.1-1.5-1.1-1.6.3-.4 1.4 1.1 1.6.9 1.1-1.3-.2-1.4-.9-2.2-1.6-1.9-.6.3-.2-.2.8-1 1.7-1.4 1.7-1.6.4-1.6-2.2 0-3.2-1.6-1.7-2.6.8-.5.9-.3.4.7-.7 1.2-.6 1.2.6 0 1-1 1.1-1.5.2-1.8-.7-.2-.9-1.1-.6-2 .4-1 .2-1.4-.4-1-.5.3-1 0-1-.8s.4-1.2.9-.9c.4.3.8 0 .8-.5 0-.6-.8-1.1-1.7-1.1-1.1 0-1.4-.3-.7-.8.6-.4 1.4-1.6 1.7-2.6.6-1.5.5-1.7-.6-.8-1 .9-1.4.8-1.4-.3 0-.8.4-1.5.9-1.5s.2-.7-.7-1.6c-1.4-1.5-1.4-1.7.2-3.1 1.6-1.3 1.6-1.4.1-.9-1 .3-2 0-2.4-.6-.4-.7-.3-.8.4-.4.8.5 1.1-.1 1-1.8-.1-1.5-.5-2.6-.9-2.6-.3 0-.6-.7-.6-1.5 0-1.2.3-1.2 1.6-.2 1.2.9 1.1.5-.3-1.7-1-1.6-1.3-2.5-.7-2.2.6.4 1.1.3 1.1-.3 0-.5-.5-1.1-1.2-1.3-.7-.3-.5-.7.6-1.1.9-.4 1.5-.3 1.1.2-.3.5-.1 1.3.5 1.6.6.4 1 .3.9-.2-.1-.4-.1-1.6 0-2.7.1-1.6.3-1.7 1.8-.5 1.1 1 1.4 1 .9.1-1-1.7.2-1.5 2.1.3.8.8 1.9 1.3 2.4.9.5-.3.9-.2.8.3-.3 1.9.2 3.4 1 2.9.4-.3.7.6.5 1.9-.1 1.4.3 2.5.9 2.5.7 0 .5.5-.3 1-1.3.9-1.3 1 0 1 1.7 0 2.2 4 .5 4-.5 0-.1.8 1 1.7 1.6 1.2 1.6 1.4.3 1-1-.3-2-.2-2.3.4-.4.5-.1.8.6.7 1.6-.4 1.9 2.4.4 3.4-.6.5-.5.8.3.8.7 0 1.1.4.7.9-.3.6.3 1.5 1.2 2.1 1.6 1 1.5 1.1-.5.6-2-.4-2.1-.2-1.1 1.1 1.6 1.8 2.1 4.3.9 4.3-.4 0-.6.9-.3 2s.8 1.8 1.2 1.6c.4-.3.7.4.7 1.5 0 1-.5 1.9-1 1.9s-.1.7 1 1.5c1.3 1 1.4 1.3.3 1-1-.4-1.6 0-1.6 1 0 .8.3 1.5.7 1.5.4 0 .7.7.7 1.5s-.5 1.5-1 1.5-.3.8.4 1.7c1 1.1 1 1.4.2.9-1-.5-1.1-.1-.3 1.9 1.4 3.7 1.3 7.8-.2 6.9-.7-.4-.8-.3-.4.5.4.6 1.1.9 1.6.6.5-.3 1.1-.1 1.5.5.3.5 0 1-.8 1-1.5 0-1.6 3.4-.2 4.7.4.5.5.3.1-.4-.3-.6-.3-1.4.2-1.7.4-.2.8.6.8 1.9 0 1.3-.4 2.1-.8 1.9-.4-.3-.8 0-.8.5 0 .6.5 1.1 1 1.1.6 0 1 .5 1 1.1 0 .5-.4.8-.8.5-.5-.3-.8.5-.7 1.7.2 1.2.7 2.1 1.3 2 .7-.2.8.7.2 2.7-.6 1.9-.5 3.2.2 3.6.7.5.8.2.3-.6-.5-.9-.4-1.1.4-.6.9.6.9 1.1 0 2.2-.8 1-.8 1.4 0 1.4.6 0 1.1.8 1.1 1.9 0 2.2 3.7 7.1 5.3 7.1.6 0 .1-.7-1.1-1.6-1.2-.8-2.2-2-2.2-2.5s1.6.7 3.6 2.7c3.3 3.2 3.6 3.4 3.1 1.3-.6-2.3-.5-2.3.8-.5.8 1 1.2 2.3.9 2.8-.4.5.3.4 1.4-.3 1.2-.7 1.8-1.8 1.5-2.4-.4-.5-.2-.7.2-.2.5.4 1.6 0 2.5-.8 1.4-1.3 1.7-1.3 1.7 0 0 .8-.5 1.1-1 .8-.6-.3-.7-.1-.3.5.5.9 1.8.4 4.4-1.5 2-1.6 3.3-2.3 2.9-1.6-.5.8-.1 1.1 1.2 1 1.2-.1 1.7-.6 1.3-1.7-.5-1.3-.3-1.3 1-.2 1.3 1 1.8 1 2.4.1.5-.8.3-.9-.6-.4-.9.5-1.1.4-.6-.3.5-.9 1.3-.9 2.8-.1 1.1.6 1.8.7 1.4.1-.3-.5.1-1.5.9-2.2 1.3-1.1 1.4-1 .9.5-.5 1.3-.4 1.6.4 1.1.7-.4 1.2-1.4 1.2-2.3 0-.9.6-1.3 1.5-.9.8.3 1.4.2 1.4-.2-.4-2.1.2-3.2 1.4-2.6.6.4.4-.1-.5-1.2-1.1-1.3-1.4-2.4-.8-3.4 1.3-2.1.2-3.2-2.2-1.9-1.8 1-1.9.8-1.4-1.3.3-1.2.3-1.7 0-1.1-.7 1.6-5.4 1.7-5.4.1 0-.9-.3-.9-1.2 0-1.7 1.7-2.8 1.5-2.8-.4 0-1.3-.3-1.4-1.4-.5-1.1.9-1.6.9-2.2 0-.4-.8-.3-.9.4-.5s1.2.2 1.2-.3c0-.6-1-1.1-2.2-1.1-1.9 0-2-.2-.8-1s1.1-1-.7-1c-1.3 0-2.3-.5-2.3-1.1 0-.5.4-.8.8-.5.4.2.8-.6.8-1.9 0-1.3-.4-2.1-.8-1.9-.5.3-.5 1-.2 1.6.4.6.3.8-.3.5-1-.6-.9-5.9.1-7.5.3-.6.1-1.6-.6-2.4-1.8-1.9-2-3.8-.6-3.8 1 0 .9-.3-.1-.9-1.6-1-2-4.7-1-7.8.5-1.4.3-2.5-.7-3.3-.7-.7-1.4-1.7-1.4-2.2 0-.5.7-.2 1.6.6 2.3 2.3 2.4 2 .7-1.4-.8-1.7-2-2.8-2.6-2.4-.7.3 0-.6 1.5-1.9 2.2-2 2.4-2.6 1.2-3.1-.9-.3-1.2-.1-.9.4.3.6.1 1-.4 1-1.4 0-1.4-1.7 0-2.6.8-.4.7-.9-.2-1.5-1.2-.8-1.2-1.1.1-1.8 1.2-.8 1.1-1.3-.5-3.2-1.1-1.2-1.5-1.9-.8-1.6.6.4 1.4.3 1.8-.3.3-.5.1-1-.6-1-.9 0-.9-.3 0-1.4.8-1 .9-1.6.2-2.1-1.5-.8-.8-4.2 1.2-6.6.9-1 1.7-2.4 1.7-3 0-.8.4-.8 1.4 0 1.1.9 1.4.8 1.2-.5 0-.9.5-1.9 1.3-2.2.9-.3 1.1 0 .6.8-.5.9-.4 1.1.4.6.8-.6.9-1.2.2-2-1.4-1.7-.2-2.9 1.5-1.5.8.7 1.4.6 2-.2.5-.8.3-.9-.7-.4-1.2.7-1.2.6-.1-.7.6-.8 2.3-1.4 3.7-1.2 1.4.1 2.3-.2 1.9-.7-.3-.5-.9-.7-1.4-.4-.5.3-1.1.1-1.5-.5-.7-1.2 2.6-1.4 4.1-.2.5.4 0-.2-1.1-1.2-2-1.9-2-1.9.3-1.3 2.3.6 2.4.5.5-1.5-1.8-2.1-1.8-2.1.4-.9 1.6.8 2.4.8 2.9-.1.4-.6.3-.8-.4-.4-.6.3-1.3.2-1.6-.3-.3-.5 0-1.1.8-1.4.9-.4 1.3-1.9 1.2-4.1-.1-2.6.2-3.5 1.1-3.1.7.2 1.3 0 1.3-.5 0-.6-.8-1-1.7-1-1 0-1.4-.4-.8-.8.6-.4 1-2.1 1-3.9-.1-1.7.3-2.9.7-2.7.4.3.9 0 .9-.5.5-4.1.4-5.8-.4-6.9-1.2-1.6.5-1.6 2.3 0 1.2 1.1 1.2 1 .3-.2-.5-.8-.9-2.5-.8-3.7.1-1.2-.2-2-.6-1.7-.4.2-1.1-.1-1.5-.7-.4-.7-.3-1 .2-.6.5.3 1.8-.2 2.9-1 1.9-1.5 1.9-1.5-.5-.8-2.2.7-2.3.6-1.1-.9 1.1-1.3 1.1-1.6 0-1.6-.8-.1-.3-.8 1.1-1.6 1.4-.8 1.7-1.3.8-1-1.2.3-1.5.1-1.1-1 .3-.7 0-1.4-.6-1.4s-.2-.9.9-2c1.6-1.6 1.8-2.5 1-4-1.5-2.8-1.1-3.8.6-1.5 1.6 2 1.6 1.9.9-.4-.6-1.8-.4-2.2.6-1.5 1.2.6 1.2.5 0-.9-1.5-1.9-2.6-2.3-1.5-.5.4.7.3.8-.4.4-1.7-1-1.5-2.6.2-2.6.8 0 1.8-.5 2.2-1.2.4-.7.3-.8-.4-.4s-1.2.3-1.2-.3c0-.5.5-1.3 1.1-1.6.7-.5.4-1.4-.7-2.6-1.8-2-.6-2.7 1.3-.8.8.8 1.3.8 1.8 0 .4-.7.1-1-.7-.9-.7.2-1.2-.3-1-1 .1-.9-.2-1.1-1-.6-.9.6-.9.3.1-.9 1.1-1.4 1.1-1.7 0-1.8-.8 0-.4-.5.9-1.1 2.4-1.2 2.8-2.3 1.2-3.3-.6-.4-.9-.1-.8.6.2.6-.2 1.3-.7 1.5-.6.2-1.1-.4-1.1-1.5s.4-1.7.8-1.5c.4.3.8-.6.8-2 0-1.3.3-3.2.7-4.2.4-1.1.3-1.5-.4-1.1-.7.4-1 0-.8-1 .2-1 .4-2.2.4-2.7.1-.4 1-.6 2.1-.3s1.8.1 1.4-.4c-.3-.5-1.2-.9-2-.9s-1.4-.5-1.4-1c0-.9 1.5-1.4 3.3-1.1.5.1.6-.3.2-.9-.3-.6-1-.8-1.5-.5-.4.3-1.4-.3-2.1-1.2-1-1.1-1-1.4-.2-.9.7.4 2.1.2 3-.4 1.5-1 1.6-1.1.1-.6-.9.2-1.9-.1-2.2-.9-.3-.9 0-1.2.8-.9.8.3 1.7 0 2.2-.7.4-.7.3-1-.3-.6s-1.3-.4-1.6-1.8c-.2-1.4 0-2.8.6-3.2.6-.4.7-.1.2.7-.5.9-.4 1.1.4.6.6-.4.8-1.3.4-1.9-.4-.7-.8-1.9-1-2.7-.1-1 .3-.9 1.3.4.8 1.1 1.4 1.5 1.4.9 0-.7-.6-1.8-1.2-2.5-.7-.7-1.4-2-1.6-2.7-.3-1.2 0-1.2 1.4 0 1.1.9 1.5.9 1 .2-1-1.8-1.6-5.3-.8-5.2 2 .3 3.2-.3 4.2-2.1.9-1.6.8-1.8-.5-1.4-.8.3-1.2 1-.9 1.5.3.5 0 .9-.6.9-1.8 0-.6-2.4 1.8-3.6 1.2-.6 1.9-1.5 1.4-2-.4-.4.1-.2 1.1.5 1.5 1.2 1.7 1.2 1.2-.2-.5-1-.1-1.5 1.2-1.4 1 .1 1.7-.4 1.5-1.1-.1-.8.2-1.1.8-.7.6.3.7 1.2.3 1.8-.4.8-.1.8.9-.1.9-.7 2.9-1 4.8-.7 2 .4 2.9.2 2.5-.5-.3-.6 0-.7.9-.4.9.3 1.4.9 1.1 1.3-.5 1 2.7.7 4.3-.3.7-.4 1.9-.2 2.7.4 1.1.9 1.5.9 1.5.1 0-.6-.4-1.1-1-1.1-.5 0-1-.4-1-.8 0-.5.7-.9 1.5-.9s1.5.7 1.5 1.5c0 2 1 .9 1.5-1.5.2-1 .4-2 .4-2.2.1-.2.9.3 2 1.3 1.6 1.4 2 1.5 3 .2.7-.8.9-2.1.5-2.7-.4-.8-.3-.9.4-.5.6.4 1.8-.5 2.6-2.1 2-3.7 2-2.1.1 1.7-.9 1.7-1.3 3-1.1 3 .3 0 1.2-1.2 2-2.8 1.6-3.1 1.9-10.2.4-10.2-.5 0-.6.5-.2 1.2.4.6.3.8-.4.5-.5-.4-.8-1.7-.4-2.9.4-1.6.2-1.9-.8-1.3-1 .6-1.2.4-.7-.8.4-1.2.2-1.4-1-1-1.2.5-1.4.3-.8-.7.6-1 .4-1.2-.8-.7-1.1.4-1.7.1-1.7-.8 0-.8-.5-1.5-1.1-1.5-.5 0-.8.4-.5.8.7 1.1-3.1.8-4.1-.3-.5-.4-.1-.4.7 0 1.3.8 1.3.6.1-.8-.7-.9-1.7-1.4-2.2-1.1-1.4.8-1.1 1.6.4.8.6-.4.8-.3.4.1-1.4 1.6-3.6 1.4-3.1-.3.3-1-.2-.6-1 .8l-1.5 2.5-.1-2.5c-.1-2.1-.2-2.2-.9-.6-.7 1.7-.8 1.7-2.4.2-1.6-1.6-1.7-1.6-1.7.1 0 1.4-.2 1.5-.9.4s-.9-1.1-1.3 0-.8 1.2-2 .2c-1.1-1-1.7-1-2.6-.1-.9.9-1 .6-.7-1.3.4-2.3.4-2.3-1-.5-1.4 1.8-2 1.5-1.6-.7.1-.5-.3-.6-.9-.2-.6.3-.8 1.1-.5 1.6.4.5.1.9-.4.9-.6 0-1.1-.5-1.1-1 0-.6-.5-1-1.1-1-.5 0-.8.4-.5.8.3.5-.1.9-.9.9s-1.2-.4-.9-.9c.8-1.3-1-1-2.5.4-.9.8-1.1.8-.8.2.4-.7 0-1.5-.9-1.8-2.3-.9-2.6-.8-1.9.6.4.7 0 .5-.8-.5-1.5-1.8-1.6-1.8-2.6 0-.6 1.1-1.1 1.3-1.1.5 0-.7-.5-1-1.2-.6s-.8.3-.4-.4c.5-.8-.2-1.2-1.8-1.2-1.4 0-2.6.6-2.6 1.2-.1.7-.7.2-1.5-1.2-1.3-2.2-2.1-1.6-1.6 1.2 0 .4-.6.5-1.4.2-.8-.4-1.5-1.6-1.6-2.8 0-2-.1-2-.9-.1-.6 1.3-.9 1.5-.9.5-.1-1.3-.2-1.3-1.1 0-.9 1.3-1 1.3-1 0s-.1-1.3-1 0c-.8 1.2-1 1.2-1.1-.5 0-1.1-.3-1.5-.5-.8-.3.7-1.2.9-2.1.6-1.2-.5-1.4-.3-.8.7.5.9.4 1.1-.4.6-.6-.4-.9-1.1-.7-1.5.3-.4-.4-.8-1.5-.8-1.8-.2-1.9 0-.7 1.4 1.2 1.5 1.1 1.5-.9.3-1.2-.8-2-1.7-1.8-2 .2-.4-.3-.7-1.1-.7-.9 0-1.3.6-.9 1.6.5 1.2.3 1.3-.6.4-.6-.6-1.9-.9-2.8-.5-1.4.5-1.4.4-.2-1.1 1.7-2.1.8-2.2-1.3-.1-.9.8-1.6 1.1-1.6.5 0-.6-.7-1.1-1.6-1.1-.9 0-1.2.5-.8 1.2.4.7-.3.4-1.5-.6-2.3-2.1-5.5-3.1-4.5-1.5.3.5 1 .7 1.5.4.5-.4.9-.1.9.4 0 1.3-1 1.4-3 .1-.9-.6-1.7-.5-2.2.3-.5.8-.8.6-.8-.6 0-.9.5-1.7 1.2-1.7.6 0 .8-.3.5-.6-.4-.4-1.2-.2-1.9.3-2.5 1.9-4.9 2.4-4.6.8.2-.7-.1-1.4-.7-1.4-.5-.1-1 .3-1 .8s-.4 1.3-.9 1.8-.6.3-.2-.5c.8-1.3-.3-1.5-6.6-1.2-2.6.1-3.8-.3-3.8-1.2 0-1-.3-.9-1 .2-.8 1.2-1 1.2-1.1-.5v-2l-.9 2c-.5 1.1-.9 1.4-.9.6-.1-1.1-.4-1.1-1.8 0-.9.8-1.4.9-1 .2.5-.7-.4-1.1-2.7-1.1-1.8 0-4.6-.7-6.2-1.7-1.6-.9-2.1-1.4-1.2-1.1 1.2.3 1.5.1 1.1-.9-.3-.8-1-1.2-1.7-.9-.6.3-.2-.2.8-1 1.3-1.1 2.3-1.3 3-.6.6.6 1.6.4 3-.8 1.1-.9 1.7-1.2 1.3-.6-.3.6 0 1.1.8 1.1s1.2-.4.9-.9c-.8-1.3 1-1 2.5.4 1.1 1.1 1.2 1 .6-.1s-.4-1.3.8-.8c1 .4 1.7.2 1.7-.5s.5-.6 1.5.2c1.2 1 1.5.9 1.5-.6s.2-1.6.9-.5c.5.8 1.1.9 1.5.3.7-1.2 2.4-1.1 4.5.2 1 .6 1.2.5.7-.2-1-1.6.7-1.5 2.3 0 1.1 1.1 1.2 1 .6-.1s-.4-1.3.8-.8c1.2.4 1.7.1 1.8-1.1 0-1.1.2-1.2.6-.4.4 1 .8 1 2.1 0 1.3-1.1 1.5-1 .9.4-.3 1-.2 2 .4 2.3.5.4.9.3.8-.2-.4-2.1.3-2.5 1.9-1 1.5 1.4 1.9 1.5 1.9.2 0-.8-.5-1.1-1.1-.8-.6.3-.6 0 .1-.7s2.5-1.4 4-1.6c1.5-.1 2.2 0 1.6.3-.7.2-1.3.9-1.3 1.4 0 .5 1.3.3 2.8-.5 1.8-.9 3.3-1.1 4.4-.5 1.1.6 2 .4 2.8-.6.9-1.1 1.7-1.2 3-.5 2.7 1.4 3.3 1.2 2.6-.8-.5-1.4-.4-1.4.9.2 1.3 1.7 1.5 1.8 1.5.3 0-.9.5-1.7 1.1-1.7.5 0 .7.4.4 1-.3.5.3 1 1.4 1 1.2 0 2.1-.4 2.1-1 0-.5.7-.7 1.5-.4 1.3.5 1.3.9.3 2.3-1.1 1.4-1.1 1.4.3.4.9-.7 1.9-.9 2.4-.5.4.4.3-.2-.3-1.4-.9-1.6-.8-2.1.3-2.1.8 0 1.2.4.9.9-.3.4-.1.8.5.8.5 0 1.1-.6 1.4-1.3.3-.9.7-.9 2 .2 1 .7 1.7 1 1.7.6s.7-.1 1.7.6c1.5 1.3 1.5 1.2.5-.8-1-1.8-.9-2.1.6-1.8.9.2 2.1.4 2.5.4.5.1.6.5.3.9-.3.5.5.8 1.7.7 1.5-.1 2.1-.8 1.9-1.9-.3-1.5 1.6-1.9 2.8-.5.3.3 1.4-.4 2.4-1.5 1.7-1.7 1.7-1.9.2-1.3-1.2.5-1.6.3-1.3-.5.2-.7 1-1.2 1.7-1 1 .2 1-.1.4-1-.9-1.1-1.1-3.3-.4-4.1.1-.1.3-1.3.4-2.6.3-2.3.2-2.3-1.1-.5-1.3 1.7-1.4 1.6-.7-1.1.4-1.7 1-3.5 1.3-4 .3-.6-.2-.2-1.1.8-1.7 1.9-1.8 1.8-1.8-1.4 0-2.6-.3-3-1-1.9-.8 1.2-1 .9-1-1.1 0-1.5-.8-3.3-1.7-4-1.5-1.1-1.6-1.1-.5.1.6.8 1.2 1.8 1.2 2.4 0 1.9-2.9-2.9-3-4.9 0-1.7-.2-1.7-1-.5-.7 1.1-1 1.1-1 .2 0-.7-.4-1.1-.9-.8-.5.3-1.1-.1-1.4-.9-.4-1-.1-1.2 1.1-.8 1.3.4 1.2.2-.3-1-1.1-.9-2.5-1.7-3.1-1.7-.6 0-1.8-.8-2.5-1.7-1-1.1-1-1.4-.1-.9.6.4 1.2.3 1.2-.3 0-.5-.9-1.3-2-1.6-1.1-.3-2-1.1-2-1.6 0-.6.6-.7 1.3-.3.9.6.9.5 0-.8-.7-.8-.9-1.9-.5-2.4.4-.4-.1-.2-1 .5-2.1 1.5-2.3.9-.7-2.1.8-1.5.8-1.9 0-1.4-.6.4-1.1.2-1.1-.4 0-.6-.5-.8-1.2-.4-.9.5-.9.2.1-.9.9-1.2 1-1.7.2-1.7-.7 0-.9-.5-.5-1.3.5-.8.2-.8-.9.2-1.4 1.1-1.7 1.1-1.7 0 0-1.2-.2-1.2-.9 0-.7 1.1-.9 1.1-1.4 0-.3-.8-.6-1-.7-.4zm-12.6 4.3c.3.5-.1.9-.9.9s-1.2-.4-.9-.9c.3-.4.7-.8.9-.8.2 0 .6.4.9.8zm-43.7 4.4c-.3.8-.6.5-.6-.6-.1-1.1.2-1.7.5-1.3.3.3.4 1.2.1 1.9zm3.8 25.8c-.3.5-.2 1 .3 1 1.2 0 2.4 2.8 1.4 3.4-.4.2-1.6-.2-2.6-1-1.6-1.1-1.7-1.6-.6-2.9 1.4-1.7 2.5-2 1.5-.5zm80 14c.3.6-.1.7-.9.4-1.8-.7-2.1-1.4-.7-1.4.6 0 1.3.4 1.6 1zm-106.8 6.3c0 .8-.6 1.4-1.3 1.4-.7 0-1-.6-.7-1.4.3-.7.8-1.3 1.2-1.3.4 0 .8.6.8 1.3zm-43.4 15.2c-.7 2.1-1.2 1.9-1-.4 0-1.1.5-1.8.9-1.5.4.3.5 1.1.1 1.9zm177.5 32.3c1.5-1.2 1.6-1.1.3.4-1.4 1.9-3.2 1.5-3-.5 0-.8.2-.8.6.1.4 1 .8 1 2.1 0zm-150.3 74.1c.3.5.2 1.2-.3 1.5-.5.3-.9-.1-.9-.9 0-1.7.3-1.9 1.2-.6zm117 1c.3.5.2 1.2-.3 1.5-.5.3-.9-.1-.9-.9 0-1.7.3-1.9 1.2-.6zm-2.8 23.6c0 .8-.4 1.2-.9.9-.5-.3-.6-1-.3-1.5.9-1.3 1.2-1.1 1.2.6zm-3 18.4c0 1.1-.5 1.8-.9 1.5-.4-.3-.5-1.1-.1-1.9.7-2.1 1.2-1.9 1 .4zm-69.2 63c.3.5 0 1.3-.6 1.7-.7.4-.9.3-.5-.4.3-.5 0-1.3-.6-1.5-.9-.4-1-.6-.1-.6.6-.1 1.4.3 1.8.8zm52 7c.3.5.2 1.2-.3 1.5-.5.3-.9-.1-.9-.9 0-1.7.3-1.9 1.2-.6zm-30.1 17.7c.3.8.2 1.2-.4.9-.6-.3-1-1-1-1.6 0-1.4.7-1.1 1.4.7z"/><path d="M152 73.4c0 .2.8 1 1.8 1.7 1.5 1.3 1.6 1.2.3-.4s-2.1-2.1-2.1-1.3zM140 54c-1.3.8-1.2 1 .3 1 .9 0 1.7-.5 1.7-1 0-1.2-.1-1.2-2 0zM254.9 75.7c-1.3 1.6-1.2 1.7.4.4.9-.7 1.7-1.5 1.7-1.7 0-.8-.8-.3-2.1 1.3zM236.3 80.5c0 .7.6 1.1 1.4.8.7-.3 1.3-.6 1.3-.8 0-.2-.6-.5-1.3-.8-.8-.3-1.4.1-1.4.8zM165.6 97.2c.3.5 1 .6 1.5.3 1.3-.9 1.1-1.2-.6-1.2-.8 0-1.2.4-.9.9zM83 100.5c-1.1 1.3-1 1.4.4.9.9-.3 1.6-1 1.6-1.5 0-1.3-.6-1.1-2 .6zM150.6 104.2c.3.5 1 .6 1.5.3 1.3-.9 1.1-1.2-.6-1.2-.8 0-1.2.4-.9.9zM226.9 107.7c-1.3 1.6-1.2 1.7.4.4.9-.7 1.7-1.5 1.7-1.7 0-.8-.8-.3-2.1 1.3zM268.7 140.1c.4 1.3.8 1.8 1.1 1 .2-.7-.1-1.8-.6-2.3-.8-.8-.9-.4-.5 1.3zM108.5 207.9c-.3.5-.2 1.2.3 1.5.5.3.9-.1.9-.9 0-1.7-.3-1.9-1.2-.6zM106 226.1c0 .5.5.7 1 .4.6-.3 1-.8 1-1.1 0-.2-.4-.4-1-.4-.5 0-1 .5-1 1.1zM246.5 232c-.3.6.1.7.9.4 1.8-.7 2.1-1.4.7-1.4-.6 0-1.3.4-1.6 1zM260.6 232.2c.3.5 1 .6 1.5.3 1.3-.9 1.1-1.2-.6-1.2-.8 0-1.2.4-.9.9zM255 243.4c0 .2.7.7 1.6 1 .8.3 1.2.2.9-.4-.6-1-2.5-1.4-2.5-.6zM239.5 272c.3.5.8 1 1.1 1 .2 0 .4-.5.4-1 0-.6-.5-1-1.1-1-.5 0-.7.4-.4 1zM238 279.4c0 .2.8 1 1.8 1.7 1.5 1.3 1.6 1.2.3-.4s-2.1-2.1-2.1-1.3zM203.4 281.8c.3.5 0 1.3-.6 1.5-.9.4-1 .6-.1.6 1.7.1 2.5-1.6 1.2-2.5-.7-.4-.9-.3-.5.4zM226.5 350c.4.6 1.1.8 1.6.5 1.4-.9 1.1-1.5-.7-1.5-.8 0-1.2.5-.9 1z"/></svg>